<svg id="Capa_1" data-name="Capa 1" xmlns="http://www.w3.org/2000/svg" viewBox="0 0 160.99 45.81"><defs><style>.cls-1{fill:#fff;}.cls-2{fill:#dcaa04;}</style></defs><title>logoSimen</title><path class="cls-1" d="M387.2,63.79c0-8.42,0-16.84,0-25.26-2.41,0-4.82,0-7.22,0,0,8.41,0,16.82,0,25.22-1.43,0-2.85,0-4.28,0a10,10,0,0,0-1.12-7.9,9.85,9.85,0,0,0-6.41-4.52,15.38,15.38,0,0,0-3.31-.19c-3.3,0-6.61,0-9.91,0a2.71,2.71,0,0,1-2.66-2.41A2.66,2.66,0,0,1,353.84,46a3.69,3.69,0,0,1,1.69-.26h20.54c0-2.41,0-4.82,0-7.23H354.93a15.64,15.64,0,0,0-1.69.13,9.89,9.89,0,0,0-8.49,10.7,9.85,9.85,0,0,0,3.17,6.43,10,10,0,0,0,6.88,2.59c3.7,0,7.39,0,11.09,0a2.7,2.7,0,0,1,0,5.39H345c0,2.42,0,4.83,0,7.25q27.18,0,54.35,0c0-2.41,0-4.81,0-7.22H387.2" transform="translate(-344.7 -38.52)"/><path class="cls-2" d="M425.12,62.49c2.4,0,4.81,0,7.21,0,0-8,0-16,0-24H424.9c-4.23,8.37-8.43,16.75-12.66,25.12q-6.31-12.57-12.62-25.12h-7.46q0,12,0,24c2.4,0,4.81,0,7.21,0,0-2.77,0-5.54,0-8.31q4.25,8.41,8.48,16.83c2.93,0,5.87,0,8.8,0,1.11-2.25,2.25-4.48,3.36-6.73l0.28-.57c1.62-3.17,3.18-6.37,4.8-9.54,0,2.77,0,5.54,0,8.3" transform="translate(-344.7 -38.52)"/><path class="cls-1" d="M505.69,71c0-1.85,0-3.7,0-5.54q0-13.47,0-26.94h-7.23q0,12.5,0,25-8.32-12.5-16.62-25c-2.4,0-4.8,0-7.2,0,0,8.42,0,16.85,0,25.27-9.85,0-19.7,0-29.55,0,0-1.81,0-3.61,0-5.42h24.14c0-2.32,0-4.86,0-7.18q-12.06,0-24.13,0c0-1.81,0-3.63,0-5.44,8.12,0,16,0,24.14,0,0-2.35,0-4.85,0-7.19-10.45,0-20.9,0-31.35,0q0,12.63,0,25.26c-4.24,0-8.49,0-12.74,0,0,2.41,0,4.82,0,7.24h56.72c0-6.46,0-12.92,0-19.38Q488.3,61.33,494.74,71h10.95" transform="translate(-344.7 -38.52)"/><polygon class="cls-1" points="124.52 7.21 124.52 7.21 124.52 7.22 124.52 7.21"/><path class="cls-1" d="M380.43,77.13l4.9,5c0-1.59,0-3.18,0-4.78h0.9q0,3.47,0,6.93c-1.63-1.67-3.26-3.34-4.9-5V84h-0.9q0-3.45,0-6.89" transform="translate(-344.7 -38.52)"/><path class="cls-1" d="M387.44,79.67a3.57,3.57,0,0,1,3.44-2.48,4.2,4.2,0,0,1,3.1,1.26l-0.67.66a3.31,3.31,0,0,0-2.73-1,2.56,2.56,0,0,0-.3,5.06,3.14,3.14,0,0,0,2.45-.38,2.5,2.5,0,0,0,.83-1.25h-1.79c0-.3,0-0.6,0-0.91h2.83a3.39,3.39,0,0,1-1.13,2.76,3.94,3.94,0,0,1-3.51.69,3.57,3.57,0,0,1-2.52-4.45" transform="translate(-344.7 -38.52)"/><path class="cls-1" d="M400.39,77.13l4.9,5c0-1.59,0-3.18,0-4.78h0.9q0,3.46,0,6.93l-4.9-5V84h-0.9q0-3.44,0-6.89" transform="translate(-344.7 -38.52)"/><path class="cls-1" d="M464.74,78.82a3.69,3.69,0,0,1,2.6-1.6,5.13,5.13,0,0,1,2.51.4c0,0.34,0,.68,0,1a4.17,4.17,0,0,0-2.51-.47,2.59,2.59,0,0,0-2.19,2.36,2.5,2.5,0,0,0,1.33,2.39,3.45,3.45,0,0,0,3.37-.18c0,0.34,0,.69,0,1a3.94,3.94,0,0,1-5.07-1.14,3.41,3.41,0,0,1,0-3.82" transform="translate(-344.7 -38.52)"/><path class="cls-1" d="M475.81,78.22a2.61,2.61,0,0,0-1.85,3.1A2.77,2.77,0,0,0,477.91,83a2.6,2.6,0,0,0,1.26-3,2.75,2.75,0,0,0-3.36-1.73m0-1a3.64,3.64,0,0,1,4.39,3.3,3.65,3.65,0,1,1-4.39-3.3" transform="translate(-344.7 -38.52)"/><path class="cls-1" d="M423.59,81.58h2.13c-0.35-.78-0.71-1.57-1.06-2.35-0.37.78-.72,1.57-1.07,2.35m-2,2.45q1.55-3.44,3.1-6.88L427.79,84h-0.95l-0.77-1.69h-2.81L422.5,84h-0.94" transform="translate(-344.7 -38.52)"/><path class="cls-1" d="M440.45,78.92a1.8,1.8,0,0,1,1.63-1.71,2.66,2.66,0,0,1,2.36.92l-0.73.59a1.54,1.54,0,0,0-2-.35,0.67,0.67,0,0,0,0,1.09c0.75,0.56,1.77.71,2.4,1.45a2,2,0,0,1-.09,2.75,2.34,2.34,0,0,1-3.32-.24,3.81,3.81,0,0,1-.59-1l0.9-.26a1.69,1.69,0,0,0,1.53,1.11A1.05,1.05,0,0,0,443.62,82a2.46,2.46,0,0,0-1.72-1.33,2.11,2.11,0,0,1-1.45-1.78" transform="translate(-344.7 -38.52)"/><path class="cls-1" d="M481.57,78.92a1.8,1.8,0,0,1,1.62-1.71,2.69,2.69,0,0,1,2.37.91l-0.73.59a1.55,1.55,0,0,0-2-.35,0.67,0.67,0,0,0,0,1.09c0.75,0.56,1.77.71,2.4,1.45a2,2,0,0,1,0,2.68,2.3,2.3,0,0,1-3,.19,3,3,0,0,1-1-1.34l0.9-.26a1.69,1.69,0,0,0,1.52,1.11,1.05,1.05,0,0,0,1.09-1.35A2.63,2.63,0,0,0,483,80.7a2.11,2.11,0,0,1-1.45-1.78" transform="translate(-344.7 -38.52)"/><path class="cls-1" d="M378.1,77.4H379q0,3.31,0,6.63H378.1V77.4Z" transform="translate(-344.7 -38.52)"/><path class="cls-1" d="M395.71,77.4h3.67V78.3h-2.78V80h2.78v0.89h-2.78q0,1.14,0,2.28h2.78V84h-3.67q0-3.31,0-6.62" transform="translate(-344.7 -38.52)"/><path class="cls-1" d="M407.53,77.4h0.89q0,3.31,0,6.63h-0.89q0-3.31,0-6.62" transform="translate(-344.7 -38.52)"/><path class="cls-1" d="M409.84,77.4h3.67q0,0.45,0,.91h-2.78q0,0.83,0,1.65h2.78c0,0.3,0,.6,0,0.89h-2.78c0,0.76,0,1.51,0,2.27,0.93,0,1.85,0,2.78,0,0,0.3,0,.6,0,0.9h-3.67q0-3.31,0-6.62" transform="translate(-344.7 -38.52)"/><path class="cls-1" d="M415.62,78.2c0,0.77,0,1.55,0,2.32a2.83,2.83,0,0,0,1.62-.36,1.06,1.06,0,0,0-.06-1.66,3,3,0,0,0-1.57-.3m-0.91-.8c1.07,0,2.28-.18,3.18.54a1.75,1.75,0,0,1,.32,2.43,2.5,2.5,0,0,1-1.44.83L418.69,84h-1c-0.62-.89-1.19-1.82-1.85-2.69l-0.19-.08c0,0.92,0,1.84,0,2.77h-0.9q0-3.31,0-6.62" transform="translate(-344.7 -38.52)"/><path class="cls-1" d="M419.89,77.4h0.89V84h-0.89q0-3.31,0-6.62" transform="translate(-344.7 -38.52)"/><path class="cls-1" d="M431.19,77.4h1l1.63,2.66,1.61-2.66h1c-0.71,1.21-1.48,2.39-2.16,3.61,0,1,0,2,0,3h-0.9c0-.91,0-1.83,0-2.74a0.73,0.73,0,0,0-.13-0.49l-2-3.39" transform="translate(-344.7 -38.52)"/><path class="cls-1" d="M445.63,77.4h3.67q0,0.45,0,.91h-2.77q0,0.83,0,1.65h2.78c0,0.3,0,.59,0,0.89h-2.78c0,0.76,0,1.52,0,2.28,0.92,0,1.84,0,2.77,0,0,0.3,0,.6,0,0.9h-3.67q0-3.31,0-6.62" transform="translate(-344.7 -38.52)"/><path class="cls-1" d="M451.41,78.2c0,0.77,0,1.55,0,2.32a2.81,2.81,0,0,0,1.63-.37A1.06,1.06,0,0,0,453,78.5a3,3,0,0,0-1.57-.3m-0.9-.8c1.06,0,2.27-.18,3.17.53a1.75,1.75,0,0,1,.33,2.44,2.5,2.5,0,0,1-1.44.83L454.49,84h-1c-0.62-.89-1.19-1.82-1.85-2.69l-0.19-.07c0,0.92,0,1.84,0,2.77h-0.9q0-3.31,0-6.62" transform="translate(-344.7 -38.52)"/><path class="cls-1" d="M455.14,77.41h1l2.06,4.65c0.76-1.52,1.4-3.1,2.11-4.65h1q-1.53,3.42-3.07,6.84l-3-6.84" transform="translate(-344.7 -38.52)"/><path class="cls-1" d="M462.11,77.4H463q0,3.31,0,6.63h-0.89q0-3.31,0-6.62" transform="translate(-344.7 -38.52)"/><path class="cls-1" d="M470.91,77.4h0.89V84h-0.89q0-3.31,0-6.62" transform="translate(-344.7 -38.52)"/></svg>