<?xml version="1.0" encoding="UTF-8" standalone="no"?>
<!-- Created with Inkscape (http://www.inkscape.org/) -->

<svg
   xmlns:dc="http://purl.org/dc/elements/1.1/"
   xmlns:cc="http://creativecommons.org/ns#"
   xmlns:rdf="http://www.w3.org/1999/02/22-rdf-syntax-ns#"
   xmlns:svg="http://www.w3.org/2000/svg"
   xmlns="http://www.w3.org/2000/svg"
   xmlns:sodipodi="http://sodipodi.sourceforge.net/DTD/sodipodi-0.dtd"
   xmlns:inkscape="http://www.inkscape.org/namespaces/inkscape"
   width="210mm"
   height="297mm"
   viewBox="0 0 744.09448819 1052.3622047"
   id="svg4368"
   version="1.1"
   inkscape:version="0.91 r13725"
   sodipodi:docname="logo-yga.svg">
  <defs
     id="defs4370" />
  <sodipodi:namedview
     id="base"
     pagecolor="#ffffff"
     bordercolor="#666666"
     borderopacity="1.0"
     inkscape:pageopacity="0.0"
     inkscape:pageshadow="2"
     inkscape:zoom="0.85943386"
     inkscape:cx="620.01195"
     inkscape:cy="471.38524"
     inkscape:document-units="px"
     inkscape:current-layer="layer1"
     showgrid="true"
     inkscape:window-width="1920"
     inkscape:window-height="1018"
     inkscape:window-x="-8"
     inkscape:window-y="-8"
     inkscape:window-maximized="1">
    <inkscape:grid
       type="xygrid"
       id="grid4731" />
  </sodipodi:namedview>
  <metadata
     id="metadata4373">
    <rdf:RDF>
      <cc:Work
         rdf:about="">
        <dc:format>image/svg+xml</dc:format>
        <dc:type
           rdf:resource="http://purl.org/dc/dcmitype/StillImage" />
        <dc:title></dc:title>
      </cc:Work>
    </rdf:RDF>
  </metadata>
  <g
     inkscape:label="Capa 1"
     inkscape:groupmode="layer"
     id="layer1">
    <g
       id="g4738">
      <path
         transform="matrix(1.0465266,-0.03195817,0.03039475,1.1003561,283.32862,-180.69163)"
         inkscape:transform-center-y="-31.621639"
         inkscape:transform-center-x="-0.010499768"
         d="M 232.33508,945.28603 -121.26381,934.97811 -220.72846,595.50026 71.397895,395.99933 351.40656,612.17883 Z"
         inkscape:randomized="0"
         inkscape:rounded="0"
         inkscape:flatsided="true"
         sodipodi:arg2="1.5999395"
         sodipodi:arg1="0.971621"
         sodipodi:r2="243.44695"
         sodipodi:r1="300.91696"
         sodipodi:cy="696.78851"
         sodipodi:cx="62.629452"
         sodipodi:sides="5"
         id="path4142"
         style="opacity:1;fill:#25a24c;fill-opacity:1;stroke:#25a24c;stroke-width:0.60000002;stroke-linecap:round;stroke-linejoin:miter;stroke-miterlimit:4;stroke-dasharray:none;stroke-opacity:1"
         sodipodi:type="star" />
      <g
         transform="translate(-18.616907,-10.47201)"
         id="g4733">
        <path
           style="opacity:1;fill:#ffffff;fill-opacity:1;stroke:#ffffff;stroke-width:0.60000002;stroke-linecap:round;stroke-linejoin:miter;stroke-miterlimit:4;stroke-dasharray:none;stroke-opacity:1"
           d="m 451.37024,656.14453 c -40.41836,55.9161 -114.49479,99.61013 -172.87099,75.38305 -41.43291,-43.92439 -9.60195,-119.56809 20.79931,-171.739 16.8712,-28.95228 56.74132,-57.77419 93.81104,-69.84505 24.96586,-8.12953 78.76409,0.81878 78.76409,0.81878 23.07895,57.21597 10.15661,119.1344 -20.50345,165.38222 z"
           id="path4144"
           inkscape:connector-curvature="0"
           sodipodi:nodetypes="cccacc" />
        <path
           sodipodi:nodetypes="cccsccaac"
           inkscape:connector-curvature="0"
           id="path4147"
           d="m 449.00331,487.67842 -44.14225,-0.30554 c 0,0 2.17841,-5.05957 8.26197,-25.20564 3.37608,-11.18008 6.89199,-18.76783 13.49313,-30.5214 3.28291,-5.84534 10.24427,-10.81937 13.53579,-17.97115 3.29152,-7.15178 7.37748,-22.19561 12.40961,-21.75198 8.46501,0.74626 9.59778,14.83949 11.15514,23.31208 2.13456,11.61277 -0.63983,23.71723 -2.92772,35.30078 -2.51692,12.7431 -11.78567,37.14285 -11.78567,37.14285 z"
           style="opacity:1;fill:#ffffff;fill-opacity:1;stroke:#ffffff;stroke-width:0.18224962;stroke-linecap:round;stroke-linejoin:miter;stroke-miterlimit:4;stroke-dasharray:none;stroke-opacity:1" />
        <path
           style="opacity:1;fill:#ffffff;fill-opacity:1;stroke:#ffffff;stroke-width:0.18224962;stroke-linecap:round;stroke-linejoin:miter;stroke-miterlimit:4;stroke-dasharray:none;stroke-opacity:1"
           d="m 413.58497,467.85174 c 2.96061,-3.38356 -55.41367,17.4294 -93.1424,63.07202 -35.68477,43.16995 -61.29547,156.44912 -61.29547,156.44912 0.79633,-1.1627 -6.29218,-73.33578 9.86589,-104.29145 29.32563,-56.18209 55.10214,-84.63375 145.05166,-122.91351 3.01081,2.09392 -0.47968,7.68382 -0.47968,7.68382 z"
           id="path4149"
           inkscape:connector-curvature="0"
           sodipodi:nodetypes="cscacc" />
      </g>
    </g>
  </g>
</svg>
